<svg width="215" height="262" viewBox="0 0 215 262" fill="none" xmlns="http://www.w3.org/2000/svg">
<rect width="42.7253" height="44.6218" transform="matrix(-1 -4.37114e-08 -4.37114e-08 1 172.277 44.6641)" fill="white"/>
<rect width="42.7253" height="44.6218" transform="matrix(-1 -4.37114e-08 -4.37114e-08 1 172.277 129.586)" fill="white"/>
<rect width="42.7253" height="44.6218" transform="matrix(-1 -4.37114e-08 -4.37114e-08 1 86.7812 129.586)" fill="white"/>
<rect width="42.7253" height="44.6218" transform="matrix(-1 -4.37114e-08 -4.37114e-08 1 86.832 44.6641)" fill="white"/>
<rect width="42.7253" height="44.6218" transform="matrix(-1 -4.37114e-08 -4.37114e-08 1 46.7656 87.75)" fill="white"/>
<rect width="42.7253" height="44.6218" transform="matrix(-1 -4.37114e-08 -4.37114e-08 1 214.973 87.75)" fill="white"/>
<rect width="42.7253" height="44.6218" transform="matrix(-1 -4.37114e-08 -4.37114e-08 1 214.973 171.406)" fill="white"/>
<rect width="42.7253" height="44.6218" transform="matrix(-1 -4.37114e-08 -4.37114e-08 1 42.7188 171.406)" fill="white"/>
<rect width="42.7253" height="44.6218" transform="matrix(-1 -4.37114e-08 -4.37114e-08 1 129.637 87.75)" fill="white"/>
<rect width="42.7253" height="44.6218" transform="matrix(-1 -4.37114e-08 -4.37114e-08 1 129.637 175.555)" fill="white"/>
<rect width="42.7253" height="44.6218" transform="matrix(-1 -4.37114e-08 -4.37114e-08 1 129.637 217.336)" fill="white"/>
<rect width="42.7253" height="44.6218" transform="matrix(-1 -4.37114e-08 -4.37114e-08 1 129.609 0)" fill="white"/>
</svg>
